<?xml version="1.0" encoding="UTF-8" standalone="no"?>
<!DOCTYPE svg PUBLIC "-//W3C//DTD SVG 1.1//EN"
 "http://www.w3.org/Graphics/SVG/1.1/DTD/svg11.dtd">
<!-- Generated by graphviz version 9.0.0 (20230911.1827)
 -->
<!-- Pages: 1 -->
<svg width="2306pt" height="975pt"
 viewBox="0.00 0.00 2305.75 974.71" xmlns="http://www.w3.org/2000/svg" xmlns:xlink="http://www.w3.org/1999/xlink">
<g id="graph0" class="graph" transform="scale(1 1) rotate(0) translate(4 970.71)">
<polygon fill="white" stroke="none" points="-4,4 -4,-970.71 2301.75,-970.71 2301.75,4 -4,4"/>
<!-- Root -->
<g id="TYPE::Root" class="node">
<title>Root</title>
<g id="a_TYPE_TITLE::Root"><a xlink:href="remove_me_url" xlink:title="&lt;TABLE&gt;">
<polygon fill="none" stroke="black" points="8,-787.83 8,-816.58 203,-816.58 203,-787.83 8,-787.83"/>
<text text-anchor="start" x="86.75" y="-794.48" font-family="Helvetica,sans-Serif" font-size="18.00">Root</text>
</a>
</g>
<g id="a_FIELD::Root::allFilms"><a xlink:href="remove_me_url" xlink:title="&lt;TABLE&gt;">
<polygon fill="none" stroke="black" points="8,-759.33 8,-787.83 203,-787.83 203,-759.33 8,-759.33"/>
<text text-anchor="start" x="14" y="-767.63" font-family="Helvetica,sans-Serif" font-size="16.00">allFilms</text>
<text text-anchor="start" x="69.5" y="-767.63" font-family="Helvetica,sans-Serif" font-size="16.00"> &#160;</text>
<text text-anchor="start" x="135.5" y="-767.63" font-family="Helvetica,sans-Serif" font-size="16.00">{R}</text>
<text text-anchor="start" x="157.25" y="-767.63" font-family="Helvetica,sans-Serif" font-size="16.00">[</text>
<text text-anchor="start" x="161.75" y="-767.63" font-family="Helvetica,sans-Serif" font-size="16.00">Film</text>
<text text-anchor="start" x="192.5" y="-767.63" font-family="Helvetica,sans-Serif" font-size="16.00">]</text>
</a>
</g>
<g id="a_FIELD::Root::film"><a xlink:href="remove_me_url" xlink:title="&lt;TABLE&gt;">
<polygon fill="none" stroke="black" points="8,-730.83 8,-759.33 203,-759.33 203,-730.83 8,-730.83"/>
<text text-anchor="start" x="14" y="-739.13" font-family="Helvetica,sans-Serif" font-size="16.00">film</text>
<text text-anchor="start" x="39.5" y="-739.13" font-family="Helvetica,sans-Serif" font-size="16.00"> &#160;</text>
<text text-anchor="start" x="166.25" y="-738.13" font-family="Helvetica,sans-Serif" font-size="16.00">Film</text>
</a>
</g>
<g id="a_FIELD::Root::allPeople"><a xlink:href="remove_me_url" xlink:title="&lt;TABLE&gt;">
<polygon fill="none" stroke="black" points="8,-702.33 8,-730.83 203,-730.83 203,-702.33 8,-702.33"/>
<text text-anchor="start" x="14" y="-710.63" font-family="Helvetica,sans-Serif" font-size="16.00">allPeople</text>
<text text-anchor="start" x="80.75" y="-710.63" font-family="Helvetica,sans-Serif" font-size="16.00"> &#160;</text>
<text text-anchor="start" x="115.25" y="-710.63" font-family="Helvetica,sans-Serif" font-size="16.00">{R}</text>
<text text-anchor="start" x="137" y="-710.63" font-family="Helvetica,sans-Serif" font-size="16.00">[</text>
<text text-anchor="start" x="141.5" y="-710.63" font-family="Helvetica,sans-Serif" font-size="16.00">Person</text>
<text text-anchor="start" x="192.5" y="-710.63" font-family="Helvetica,sans-Serif" font-size="16.00">]</text>
</a>
</g>
<g id="a_FIELD::Root::person"><a xlink:href="remove_me_url" xlink:title="&lt;TABLE&gt;">
<polygon fill="none" stroke="black" points="8,-673.83 8,-702.33 203,-702.33 203,-673.83 8,-673.83"/>
<text text-anchor="start" x="14" y="-682.13" font-family="Helvetica,sans-Serif" font-size="16.00">person</text>
<text text-anchor="start" x="63.5" y="-682.13" font-family="Helvetica,sans-Serif" font-size="16.00"> &#160;</text>
<text text-anchor="start" x="146" y="-681.13" font-family="Helvetica,sans-Serif" font-size="16.00">Person</text>
</a>
</g>
<g id="a_FIELD::Root::allPlanets"><a xlink:href="remove_me_url" xlink:title="&lt;TABLE&gt;">
<polygon fill="none" stroke="black" points="8,-645.33 8,-673.83 203,-673.83 203,-645.33 8,-645.33"/>
<text text-anchor="start" x="14" y="-653.63" font-family="Helvetica,sans-Serif" font-size="16.00">allPlanets</text>
<text text-anchor="start" x="84.5" y="-653.63" font-family="Helvetica,sans-Serif" font-size="16.00"> &#160;</text>
<text text-anchor="start" x="120.5" y="-653.63" font-family="Helvetica,sans-Serif" font-size="16.00">{R}</text>
<text text-anchor="start" x="142.25" y="-653.63" font-family="Helvetica,sans-Serif" font-size="16.00">[</text>
<text text-anchor="start" x="146.75" y="-653.63" font-family="Helvetica,sans-Serif" font-size="16.00">Planet</text>
<text text-anchor="start" x="192.5" y="-653.63" font-family="Helvetica,sans-Serif" font-size="16.00">]</text>
</a>
</g>
<g id="a_FIELD::Root::planet"><a xlink:href="remove_me_url" xlink:title="&lt;TABLE&gt;">
<polygon fill="none" stroke="black" points="8,-616.83 8,-645.33 203,-645.33 203,-616.83 8,-616.83"/>
<text text-anchor="start" x="14" y="-625.13" font-family="Helvetica,sans-Serif" font-size="16.00">planet</text>
<text text-anchor="start" x="58.25" y="-625.13" font-family="Helvetica,sans-Serif" font-size="16.00"> &#160;</text>
<text text-anchor="start" x="151.25" y="-624.13" font-family="Helvetica,sans-Serif" font-size="16.00">Planet</text>
</a>
</g>
<g id="a_FIELD::Root::allSpecies"><a xlink:href="remove_me_url" xlink:title="&lt;TABLE&gt;">
<polygon fill="none" stroke="black" points="8,-588.33 8,-616.83 203,-616.83 203,-588.33 8,-588.33"/>
<text text-anchor="start" x="14" y="-596.63" font-family="Helvetica,sans-Serif" font-size="16.00">allSpecies</text>
<text text-anchor="start" x="88.25" y="-596.63" font-family="Helvetica,sans-Serif" font-size="16.00"> &#160;</text>
<text text-anchor="start" x="108.5" y="-596.63" font-family="Helvetica,sans-Serif" font-size="16.00">{R}</text>
<text text-anchor="start" x="130.25" y="-596.63" font-family="Helvetica,sans-Serif" font-size="16.00">[</text>
<text text-anchor="start" x="134.75" y="-596.63" font-family="Helvetica,sans-Serif" font-size="16.00">Species</text>
<text text-anchor="start" x="192.5" y="-596.63" font-family="Helvetica,sans-Serif" font-size="16.00">]</text>
</a>
</g>
<g id="a_FIELD::Root::species"><a xlink:href="remove_me_url" xlink:title="&lt;TABLE&gt;">
<polygon fill="none" stroke="black" points="8,-559.83 8,-588.33 203,-588.33 203,-559.83 8,-559.83"/>
<text text-anchor="start" x="14" y="-568.13" font-family="Helvetica,sans-Serif" font-size="16.00">species</text>
<text text-anchor="start" x="69.5" y="-568.13" font-family="Helvetica,sans-Serif" font-size="16.00"> &#160;</text>
<text text-anchor="start" x="139.25" y="-567.13" font-family="Helvetica,sans-Serif" font-size="16.00">Species</text>
</a>
</g>
<g id="a_FIELD::Root::allStarships"><a xlink:href="remove_me_url" xlink:title="&lt;TABLE&gt;">
<polygon fill="none" stroke="black" points="8,-531.33 8,-559.83 203,-559.83 203,-531.33 8,-531.33"/>
<text text-anchor="start" x="14" y="-539.63" font-family="Helvetica,sans-Serif" font-size="16.00">allStarships</text>
<text text-anchor="start" x="98" y="-539.63" font-family="Helvetica,sans-Serif" font-size="16.00"> &#160;</text>
<text text-anchor="start" x="107" y="-539.63" font-family="Helvetica,sans-Serif" font-size="16.00">{R}</text>
<text text-anchor="start" x="128.75" y="-539.63" font-family="Helvetica,sans-Serif" font-size="16.00">[</text>
<text text-anchor="start" x="133.25" y="-539.63" font-family="Helvetica,sans-Serif" font-size="16.00">Starship</text>
<text text-anchor="start" x="192.5" y="-539.63" font-family="Helvetica,sans-Serif" font-size="16.00">]</text>
</a>
</g>
<g id="a_FIELD::Root::starship"><a xlink:href="remove_me_url" xlink:title="&lt;TABLE&gt;">
<polygon fill="none" stroke="black" points="8,-502.83 8,-531.33 203,-531.33 203,-502.83 8,-502.83"/>
<text text-anchor="start" x="14" y="-511.13" font-family="Helvetica,sans-Serif" font-size="16.00">starship</text>
<text text-anchor="start" x="71" y="-511.13" font-family="Helvetica,sans-Serif" font-size="16.00"> &#160;</text>
<text text-anchor="start" x="137.75" y="-510.13" font-family="Helvetica,sans-Serif" font-size="16.00">Starship</text>
</a>
</g>
<g id="a_FIELD::Root::allVehicles"><a xlink:href="remove_me_url" xlink:title="&lt;TABLE&gt;">
<polygon fill="none" stroke="black" points="8,-474.33 8,-502.83 203,-502.83 203,-474.33 8,-474.33"/>
<text text-anchor="start" x="14" y="-482.63" font-family="Helvetica,sans-Serif" font-size="16.00">allVehicles</text>
<text text-anchor="start" x="91.25" y="-482.63" font-family="Helvetica,sans-Serif" font-size="16.00"> &#160;</text>
<text text-anchor="start" x="113.75" y="-482.63" font-family="Helvetica,sans-Serif" font-size="16.00">{R}</text>
<text text-anchor="start" x="135.5" y="-482.63" font-family="Helvetica,sans-Serif" font-size="16.00">[</text>
<text text-anchor="start" x="140" y="-482.63" font-family="Helvetica,sans-Serif" font-size="16.00">Vehicle</text>
<text text-anchor="start" x="192.5" y="-482.63" font-family="Helvetica,sans-Serif" font-size="16.00">]</text>
</a>
</g>
<g id="a_FIELD::Root::vehicle"><a xlink:href="remove_me_url" xlink:title="&lt;TABLE&gt;">
<polygon fill="none" stroke="black" points="8,-445.83 8,-474.33 203,-474.33 203,-445.83 8,-445.83"/>
<text text-anchor="start" x="14" y="-454.13" font-family="Helvetica,sans-Serif" font-size="16.00">vehicle</text>
<text text-anchor="start" x="65" y="-454.13" font-family="Helvetica,sans-Serif" font-size="16.00"> &#160;</text>
<text text-anchor="start" x="144.5" y="-453.13" font-family="Helvetica,sans-Serif" font-size="16.00">Vehicle</text>
</a>
</g>
</g>
<!-- Film -->
<g id="TYPE::Film" class="node">
<title>Film</title>
<g id="a_TYPE_TITLE::Film"><a xlink:href="remove_me_url" xlink:title="&lt;TABLE&gt;">
<polygon fill="none" stroke="black" points="438,-701.08 438,-729.83 690,-729.83 690,-701.08 438,-701.08"/>
<text text-anchor="start" x="547.12" y="-707.73" font-family="Helvetica,sans-Serif" font-size="18.00">Film</text>
</a>
</g>
<g id="a_FIELD::Film::speciesConnection"><a xlink:href="remove_me_url" xlink:title="&lt;TABLE&gt;">
<polygon fill="none" stroke="black" points="438,-672.58 438,-701.08 690,-701.08 690,-672.58 438,-672.58"/>
<text text-anchor="start" x="444" y="-680.88" font-family="Helvetica,sans-Serif" font-size="16.00">speciesConnection</text>
<text text-anchor="start" x="581.25" y="-680.88" font-family="Helvetica,sans-Serif" font-size="16.00"> &#160;</text>
<text text-anchor="start" x="595.5" y="-680.88" font-family="Helvetica,sans-Serif" font-size="16.00">{R}</text>
<text text-anchor="start" x="617.25" y="-680.88" font-family="Helvetica,sans-Serif" font-size="16.00">[</text>
<text text-anchor="start" x="621.75" y="-680.88" font-family="Helvetica,sans-Serif" font-size="16.00">Species</text>
<text text-anchor="start" x="679.5" y="-680.88" font-family="Helvetica,sans-Serif" font-size="16.00">]</text>
</a>
</g>
<g id="a_FIELD::Film::starshipConnection"><a xlink:href="remove_me_url" xlink:title="&lt;TABLE&gt;">
<polygon fill="none" stroke="black" points="438,-644.08 438,-672.58 690,-672.58 690,-644.08 438,-644.08"/>
<text text-anchor="start" x="444" y="-652.38" font-family="Helvetica,sans-Serif" font-size="16.00">starshipConnection</text>
<text text-anchor="start" x="582.75" y="-652.38" font-family="Helvetica,sans-Serif" font-size="16.00"> &#160;</text>
<text text-anchor="start" x="594" y="-652.38" font-family="Helvetica,sans-Serif" font-size="16.00">{R}</text>
<text text-anchor="start" x="615.75" y="-652.38" font-family="Helvetica,sans-Serif" font-size="16.00">[</text>
<text text-anchor="start" x="620.25" y="-652.38" font-family="Helvetica,sans-Serif" font-size="16.00">Starship</text>
<text text-anchor="start" x="679.5" y="-652.38" font-family="Helvetica,sans-Serif" font-size="16.00">]</text>
</a>
</g>
<g id="a_FIELD::Film::vehicleConnection"><a xlink:href="remove_me_url" xlink:title="&lt;TABLE&gt;">
<polygon fill="none" stroke="black" points="438,-615.58 438,-644.08 690,-644.08 690,-615.58 438,-615.58"/>
<text text-anchor="start" x="444" y="-623.88" font-family="Helvetica,sans-Serif" font-size="16.00">vehicleConnection</text>
<text text-anchor="start" x="576.75" y="-623.88" font-family="Helvetica,sans-Serif" font-size="16.00"> &#160;</text>
<text text-anchor="start" x="600.75" y="-623.88" font-family="Helvetica,sans-Serif" font-size="16.00">{R}</text>
<text text-anchor="start" x="622.5" y="-623.88" font-family="Helvetica,sans-Serif" font-size="16.00">[</text>
<text text-anchor="start" x="627" y="-623.88" font-family="Helvetica,sans-Serif" font-size="16.00">Vehicle</text>
<text text-anchor="start" x="679.5" y="-623.88" font-family="Helvetica,sans-Serif" font-size="16.00">]</text>
</a>
</g>
<g id="a_FIELD::Film::characterConnection"><a xlink:href="remove_me_url" xlink:title="&lt;TABLE&gt;">
<polygon fill="none" stroke="black" points="438,-587.08 438,-615.58 690,-615.58 690,-587.08 438,-587.08"/>
<text text-anchor="start" x="444" y="-595.38" font-family="Helvetica,sans-Serif" font-size="16.00">characterConnection</text>
<text text-anchor="start" x="593.25" y="-595.38" font-family="Helvetica,sans-Serif" font-size="16.00"> &#160;</text>
<text text-anchor="start" x="602.25" y="-595.38" font-family="Helvetica,sans-Serif" font-size="16.00">{R}</text>
<text text-anchor="start" x="624" y="-595.38" font-family="Helvetica,sans-Serif" font-size="16.00">[</text>
<text text-anchor="start" x="628.5" y="-595.38" font-family="Helvetica,sans-Serif" font-size="16.00">Person</text>
<text text-anchor="start" x="679.5" y="-595.38" font-family="Helvetica,sans-Serif" font-size="16.00">]</text>
</a>
</g>
<g id="a_FIELD::Film::planetConnection"><a xlink:href="remove_me_url" xlink:title="&lt;TABLE&gt;">
<polygon fill="none" stroke="black" points="438,-558.58 438,-587.08 690,-587.08 690,-558.58 438,-558.58"/>
<text text-anchor="start" x="444" y="-566.88" font-family="Helvetica,sans-Serif" font-size="16.00">planetConnection</text>
<text text-anchor="start" x="570" y="-566.88" font-family="Helvetica,sans-Serif" font-size="16.00"> &#160;</text>
<text text-anchor="start" x="607.5" y="-566.88" font-family="Helvetica,sans-Serif" font-size="16.00">{R}</text>
<text text-anchor="start" x="629.25" y="-566.88" font-family="Helvetica,sans-Serif" font-size="16.00">[</text>
<text text-anchor="start" x="633.75" y="-566.88" font-family="Helvetica,sans-Serif" font-size="16.00">Planet</text>
<text text-anchor="start" x="679.5" y="-566.88" font-family="Helvetica,sans-Serif" font-size="16.00">]</text>
</a>
</g>
</g>
<!-- Root&#45;&gt;Film -->
<g id="FIELD::Root::allFilms =&gt; TYPE::Film" class="edge">
<title>Root:allFilms&#45;&gt;Film</title>
<path fill="none" stroke="black" d="M204.5,-773.21C251.25,-773.21 239.32,-826.56 283,-843.21 314.15,-855.08 328.15,-858.04 358,-843.21 405.44,-819.63 392.82,-785.95 430,-748.21 432.27,-745.91 434.58,-743.61 436.94,-741.33"/>
<polygon fill="black" stroke="black" points="439.16,-744.05 444.02,-734.64 434.35,-738.96 439.16,-744.05"/>
<text text-anchor="middle" x="320.5" y="-857.41" font-family="Times,serif" font-size="14.00">Root:allFilms</text>
</g>
<!-- Root&#45;&gt;Film -->
<g id="FIELD::Root::film =&gt; TYPE::Film" class="edge">
<title>Root:film&#45;&gt;Film</title>
<path fill="none" stroke="black" d="M204.5,-745.21C277.08,-745.21 354.94,-725.79 419.49,-703.98"/>
<polygon fill="black" stroke="black" points="420.4,-707.37 428.72,-700.81 418.12,-700.75 420.4,-707.37"/>
<text text-anchor="middle" x="320.5" y="-742.41" font-family="Times,serif" font-size="14.00">Root:film</text>
</g>
<!-- Person -->
<g id="TYPE::Person" class="node">
<title>Person</title>
<g id="a_TYPE_TITLE::Person"><a xlink:href="remove_me_url" xlink:title="&lt;TABLE&gt;">
<polygon fill="none" stroke="black" points="991.75,-703.08 991.75,-731.83 1241.5,-731.83 1241.5,-703.08 991.75,-703.08"/>
<text text-anchor="start" x="1088.5" y="-709.73" font-family="Helvetica,sans-Serif" font-size="18.00">Person</text>
</a>
</g>
<g id="a_FIELD::Person::homeworld"><a xlink:href="remove_me_url" xlink:title="&lt;TABLE&gt;">
<polygon fill="none" stroke="black" points="991.75,-674.58 991.75,-703.08 1241.5,-703.08 1241.5,-674.58 991.75,-674.58"/>
<text text-anchor="start" x="997.75" y="-682.88" font-family="Helvetica,sans-Serif" font-size="16.00">homeworld</text>
<text text-anchor="start" x="1076.5" y="-682.88" font-family="Helvetica,sans-Serif" font-size="16.00"> &#160;</text>
<text text-anchor="start" x="1189.75" y="-681.88" font-family="Helvetica,sans-Serif" font-size="16.00">Planet</text>
</a>
</g>
<g id="a_FIELD::Person::filmConnection"><a xlink:href="remove_me_url" xlink:title="&lt;TABLE&gt;">
<polygon fill="none" stroke="black" points="991.75,-646.08 991.75,-674.58 1241.5,-674.58 1241.5,-646.08 991.75,-646.08"/>
<text text-anchor="start" x="997.75" y="-654.38" font-family="Helvetica,sans-Serif" font-size="16.00">filmConnection</text>
<text text-anchor="start" x="1105" y="-654.38" font-family="Helvetica,sans-Serif" font-size="16.00"> &#160;</text>
<text text-anchor="start" x="1174" y="-654.38" font-family="Helvetica,sans-Serif" font-size="16.00">{R}</text>
<text text-anchor="start" x="1195.75" y="-654.38" font-family="Helvetica,sans-Serif" font-size="16.00">[</text>
<text text-anchor="start" x="1200.25" y="-654.38" font-family="Helvetica,sans-Serif" font-size="16.00">Film</text>
<text text-anchor="start" x="1231" y="-654.38" font-family="Helvetica,sans-Serif" font-size="16.00">]</text>
</a>
</g>
<g id="a_FIELD::Person::species"><a xlink:href="remove_me_url" xlink:title="&lt;TABLE&gt;">
<polygon fill="none" stroke="black" points="991.75,-617.58 991.75,-646.08 1241.5,-646.08 1241.5,-617.58 991.75,-617.58"/>
<text text-anchor="start" x="997.75" y="-625.88" font-family="Helvetica,sans-Serif" font-size="16.00">species</text>
<text text-anchor="start" x="1053.25" y="-625.88" font-family="Helvetica,sans-Serif" font-size="16.00"> &#160;</text>
<text text-anchor="start" x="1177.75" y="-624.88" font-family="Helvetica,sans-Serif" font-size="16.00">Species</text>
</a>
</g>
<g id="a_FIELD::Person::starshipConnection"><a xlink:href="remove_me_url" xlink:title="&lt;TABLE&gt;">
<polygon fill="none" stroke="black" points="991.75,-589.08 991.75,-617.58 1241.5,-617.58 1241.5,-589.08 991.75,-589.08"/>
<text text-anchor="start" x="997.75" y="-597.38" font-family="Helvetica,sans-Serif" font-size="16.00">starshipConnection</text>
<text text-anchor="start" x="1136.5" y="-597.38" font-family="Helvetica,sans-Serif" font-size="16.00"> &#160;</text>
<text text-anchor="start" x="1145.5" y="-597.38" font-family="Helvetica,sans-Serif" font-size="16.00">{R}</text>
<text text-anchor="start" x="1167.25" y="-597.38" font-family="Helvetica,sans-Serif" font-size="16.00">[</text>
<text text-anchor="start" x="1171.75" y="-597.38" font-family="Helvetica,sans-Serif" font-size="16.00">Starship</text>
<text text-anchor="start" x="1231" y="-597.38" font-family="Helvetica,sans-Serif" font-size="16.00">]</text>
</a>
</g>
<g id="a_FIELD::Person::vehicleConnection"><a xlink:href="remove_me_url" xlink:title="&lt;TABLE&gt;">
<polygon fill="none" stroke="black" points="991.75,-560.58 991.75,-589.08 1241.5,-589.08 1241.5,-560.58 991.75,-560.58"/>
<text text-anchor="start" x="997.75" y="-568.88" font-family="Helvetica,sans-Serif" font-size="16.00">vehicleConnection</text>
<text text-anchor="start" x="1130.5" y="-568.88" font-family="Helvetica,sans-Serif" font-size="16.00"> &#160;</text>
<text text-anchor="start" x="1152.25" y="-568.88" font-family="Helvetica,sans-Serif" font-size="16.00">{R}</text>
<text text-anchor="start" x="1174" y="-568.88" font-family="Helvetica,sans-Serif" font-size="16.00">[</text>
<text text-anchor="start" x="1178.5" y="-568.88" font-family="Helvetica,sans-Serif" font-size="16.00">Vehicle</text>
<text text-anchor="start" x="1231" y="-568.88" font-family="Helvetica,sans-Serif" font-size="16.00">]</text>
</a>
</g>
</g>
<!-- Root&#45;&gt;Person -->
<g id="FIELD::Root::allPeople =&gt; TYPE::Person" class="edge">
<title>Root:allPeople&#45;&gt;Person</title>
<path fill="none" stroke="black" d="M204.5,-716.21C248.96,-716.21 241.63,-761.92 283,-778.21 353.26,-805.86 676.69,-793.78 698,-790.21 792.47,-774.38 894.16,-739.72 973.54,-708.37"/>
<polygon fill="black" stroke="black" points="974.69,-711.68 982.69,-704.73 972.11,-705.18 974.69,-711.68"/>
<text text-anchor="middle" x="564" y="-799.41" font-family="Times,serif" font-size="14.00">Root:allPeople</text>
</g>
<!-- Root&#45;&gt;Person -->
<g id="FIELD::Root::person =&gt; TYPE::Person" class="edge">
<title>Root:person&#45;&gt;Person</title>
<path fill="none" stroke="black" d="M204.5,-688.21C307.66,-688.21 327.58,-730.9 430,-743.21 548.26,-757.42 579.66,-756.77 698,-743.21 790.89,-732.56 893.17,-709.01 973.26,-687.78"/>
<polygon fill="black" stroke="black" points="973.69,-691.29 982.45,-685.33 971.88,-684.52 973.69,-691.29"/>
<text text-anchor="middle" x="564" y="-757.41" font-family="Times,serif" font-size="14.00">Root:person</text>
</g>
<!-- Planet -->
<g id="TYPE::Planet" class="node">
<title>Planet</title>
<g id="a_TYPE_TITLE::Planet"><a xlink:href="remove_me_url" xlink:title="&lt;TABLE&gt;">
<polygon fill="none" stroke="black" points="2047.5,-820.33 2047.5,-849.08 2289.75,-849.08 2289.75,-820.33 2047.5,-820.33"/>
<text text-anchor="start" x="2143.5" y="-826.98" font-family="Helvetica,sans-Serif" font-size="18.00">Planet</text>
</a>
</g>
<g id="a_FIELD::Planet::residentConnection"><a xlink:href="remove_me_url" xlink:title="&lt;TABLE&gt;">
<polygon fill="none" stroke="black" points="2047.5,-791.83 2047.5,-820.33 2289.75,-820.33 2289.75,-791.83 2047.5,-791.83"/>
<text text-anchor="start" x="2053.5" y="-800.13" font-family="Helvetica,sans-Serif" font-size="16.00">residentConnection</text>
<text text-anchor="start" x="2193" y="-800.13" font-family="Helvetica,sans-Serif" font-size="16.00"> &#160;</text>
<text text-anchor="start" x="2202" y="-800.13" font-family="Helvetica,sans-Serif" font-size="16.00">{R}</text>
<text text-anchor="start" x="2223.75" y="-800.13" font-family="Helvetica,sans-Serif" font-size="16.00">[</text>
<text text-anchor="start" x="2228.25" y="-800.13" font-family="Helvetica,sans-Serif" font-size="16.00">Person</text>
<text text-anchor="start" x="2279.25" y="-800.13" font-family="Helvetica,sans-Serif" font-size="16.00">]</text>
</a>
</g>
<g id="a_FIELD::Planet::filmConnection"><a xlink:href="remove_me_url" xlink:title="&lt;TABLE&gt;">
<polygon fill="none" stroke="black" points="2047.5,-763.33 2047.5,-791.83 2289.75,-791.83 2289.75,-763.33 2047.5,-763.33"/>
<text text-anchor="start" x="2053.5" y="-771.63" font-family="Helvetica,sans-Serif" font-size="16.00">filmConnection</text>
<text text-anchor="start" x="2160.75" y="-771.63" font-family="Helvetica,sans-Serif" font-size="16.00"> &#160;</text>
<text text-anchor="start" x="2222.25" y="-771.63" font-family="Helvetica,sans-Serif" font-size="16.00">{R}</text>
<text text-anchor="start" x="2244" y="-771.63" font-family="Helvetica,sans-Serif" font-size="16.00">[</text>
<text text-anchor="start" x="2248.5" y="-771.63" font-family="Helvetica,sans-Serif" font-size="16.00">Film</text>
<text text-anchor="start" x="2279.25" y="-771.63" font-family="Helvetica,sans-Serif" font-size="16.00">]</text>
</a>
</g>
</g>
<!-- Root&#45;&gt;Planet -->
<g id="FIELD::Root::allPlanets =&gt; TYPE::Planet" class="edge">
<title>Root:allPlanets&#45;&gt;Planet</title>
<path fill="none" stroke="black" d="M204.5,-659.21C321.81,-659.21 193.55,-835.31 283,-911.21 378.81,-992.5 437.35,-950.21 563,-950.21 563,-950.21 563,-950.21 1664.25,-950.21 1800.14,-950.21 1837.91,-952.08 1967.5,-911.21 2007.69,-898.53 2049.38,-878.01 2084.24,-858.46"/>
<polygon fill="black" stroke="black" points="2085.6,-861.71 2092.57,-853.72 2082.15,-855.62 2085.6,-861.71"/>
<text text-anchor="middle" x="1116.62" y="-953.41" font-family="Times,serif" font-size="14.00">Root:allPlanets</text>
</g>
<!-- Root&#45;&gt;Planet -->
<g id="FIELD::Root::planet =&gt; TYPE::Planet" class="edge">
<title>Root:planet&#45;&gt;Planet</title>
<path fill="none" stroke="black" d="M204.5,-631.21C318,-631.21 194.05,-803.72 283,-874.21 331.93,-912.98 500.57,-897.21 563,-897.21 563,-897.21 563,-897.21 1664.25,-897.21 1788.9,-897.21 1928.19,-869.85 2028.59,-845.14"/>
<polygon fill="black" stroke="black" points="2029.39,-848.54 2038.25,-842.73 2027.7,-841.75 2029.39,-848.54"/>
<text text-anchor="middle" x="1116.62" y="-900.41" font-family="Times,serif" font-size="14.00">Root:planet</text>
</g>
<!-- Species -->
<g id="TYPE::Species" class="node">
<title>Species</title>
<g id="a_TYPE_TITLE::Species"><a xlink:href="remove_me_url" xlink:title="&lt;TABLE&gt;">
<polygon fill="none" stroke="black" points="1546.25,-531.58 1546.25,-560.33 1780.25,-560.33 1780.25,-531.58 1546.25,-531.58"/>
<text text-anchor="start" x="1631.75" y="-538.23" font-family="Helvetica,sans-Serif" font-size="18.00">Species</text>
</a>
</g>
<g id="a_FIELD::Species::homeworld"><a xlink:href="remove_me_url" xlink:title="&lt;TABLE&gt;">
<polygon fill="none" stroke="black" points="1546.25,-503.08 1546.25,-531.58 1780.25,-531.58 1780.25,-503.08 1546.25,-503.08"/>
<text text-anchor="start" x="1552.25" y="-511.38" font-family="Helvetica,sans-Serif" font-size="16.00">homeworld</text>
<text text-anchor="start" x="1631" y="-511.38" font-family="Helvetica,sans-Serif" font-size="16.00"> &#160;</text>
<text text-anchor="start" x="1728.5" y="-510.38" font-family="Helvetica,sans-Serif" font-size="16.00">Planet</text>
</a>
</g>
<g id="a_FIELD::Species::personConnection"><a xlink:href="remove_me_url" xlink:title="&lt;TABLE&gt;">
<polygon fill="none" stroke="black" points="1546.25,-474.58 1546.25,-503.08 1780.25,-503.08 1780.25,-474.58 1546.25,-474.58"/>
<text text-anchor="start" x="1552.25" y="-482.88" font-family="Helvetica,sans-Serif" font-size="16.00">personConnection</text>
<text text-anchor="start" x="1683.5" y="-482.88" font-family="Helvetica,sans-Serif" font-size="16.00"> &#160;</text>
<text text-anchor="start" x="1692.5" y="-482.88" font-family="Helvetica,sans-Serif" font-size="16.00">{R}</text>
<text text-anchor="start" x="1714.25" y="-482.88" font-family="Helvetica,sans-Serif" font-size="16.00">[</text>
<text text-anchor="start" x="1718.75" y="-482.88" font-family="Helvetica,sans-Serif" font-size="16.00">Person</text>
<text text-anchor="start" x="1769.75" y="-482.88" font-family="Helvetica,sans-Serif" font-size="16.00">]</text>
</a>
</g>
<g id="a_FIELD::Species::filmConnection"><a xlink:href="remove_me_url" xlink:title="&lt;TABLE&gt;">
<polygon fill="none" stroke="black" points="1546.25,-446.08 1546.25,-474.58 1780.25,-474.58 1780.25,-446.08 1546.25,-446.08"/>
<text text-anchor="start" x="1552.25" y="-454.38" font-family="Helvetica,sans-Serif" font-size="16.00">filmConnection</text>
<text text-anchor="start" x="1659.5" y="-454.38" font-family="Helvetica,sans-Serif" font-size="16.00"> &#160;</text>
<text text-anchor="start" x="1712.75" y="-454.38" font-family="Helvetica,sans-Serif" font-size="16.00">{R}</text>
<text text-anchor="start" x="1734.5" y="-454.38" font-family="Helvetica,sans-Serif" font-size="16.00">[</text>
<text text-anchor="start" x="1739" y="-454.38" font-family="Helvetica,sans-Serif" font-size="16.00">Film</text>
<text text-anchor="start" x="1769.75" y="-454.38" font-family="Helvetica,sans-Serif" font-size="16.00">]</text>
</a>
</g>
</g>
<!-- Root&#45;&gt;Species -->
<g id="FIELD::Root::allSpecies =&gt; TYPE::Species" class="edge">
<title>Root:allSpecies&#45;&gt;Species</title>
<path fill="none" stroke="black" d="M204.5,-602.21C307.87,-602.21 327.62,-559.5 430,-545.21 886.33,-481.48 1005.91,-534.01 1466.25,-514.21 1485.93,-513.36 1506.71,-512.34 1527.1,-511.26"/>
<polygon fill="black" stroke="black" points="1527.07,-514.76 1536.86,-510.73 1526.69,-507.77 1527.07,-514.76"/>
<text text-anchor="middle" x="840.88" y="-517.41" font-family="Times,serif" font-size="14.00">Root:allSpecies</text>
</g>
<!-- Root&#45;&gt;Species -->
<g id="FIELD::Root::species =&gt; TYPE::Species" class="edge">
<title>Root:species&#45;&gt;Species</title>
<path fill="none" stroke="black" d="M204.5,-574.21C256.35,-574.21 378.82,-522.55 430,-514.21 579.44,-489.85 618.66,-497.49 770,-492.71 1038.36,-484.23 1352.33,-492.04 1527.14,-497.98"/>
<polygon fill="black" stroke="black" points="1526.82,-501.47 1536.93,-498.31 1527.06,-494.47 1526.82,-501.47"/>
<text text-anchor="middle" x="840.88" y="-496.41" font-family="Times,serif" font-size="14.00">Root:species</text>
</g>
<!-- Starship -->
<g id="TYPE::Starship" class="node">
<title>Starship</title>
<g id="a_TYPE_TITLE::Starship"><a xlink:href="remove_me_url" xlink:title="&lt;TABLE&gt;">
<polygon fill="none" stroke="black" points="1556,-309.33 1556,-338.08 1770.5,-338.08 1770.5,-309.33 1556,-309.33"/>
<text text-anchor="start" x="1630.62" y="-315.98" font-family="Helvetica,sans-Serif" font-size="18.00">Starship</text>
</a>
</g>
<g id="a_FIELD::Starship::pilotConnection"><a xlink:href="remove_me_url" xlink:title="&lt;TABLE&gt;">
<polygon fill="none" stroke="black" points="1556,-280.83 1556,-309.33 1770.5,-309.33 1770.5,-280.83 1556,-280.83"/>
<text text-anchor="start" x="1562" y="-289.13" font-family="Helvetica,sans-Serif" font-size="16.00">pilotConnection</text>
<text text-anchor="start" x="1673.75" y="-289.13" font-family="Helvetica,sans-Serif" font-size="16.00"> &#160;</text>
<text text-anchor="start" x="1682.75" y="-289.13" font-family="Helvetica,sans-Serif" font-size="16.00">{R}</text>
<text text-anchor="start" x="1704.5" y="-289.13" font-family="Helvetica,sans-Serif" font-size="16.00">[</text>
<text text-anchor="start" x="1709" y="-289.13" font-family="Helvetica,sans-Serif" font-size="16.00">Person</text>
<text text-anchor="start" x="1760" y="-289.13" font-family="Helvetica,sans-Serif" font-size="16.00">]</text>
</a>
</g>
<g id="a_FIELD::Starship::filmConnection"><a xlink:href="remove_me_url" xlink:title="&lt;TABLE&gt;">
<polygon fill="none" stroke="black" points="1556,-252.33 1556,-280.83 1770.5,-280.83 1770.5,-252.33 1556,-252.33"/>
<text text-anchor="start" x="1562" y="-260.63" font-family="Helvetica,sans-Serif" font-size="16.00">filmConnection</text>
<text text-anchor="start" x="1669.25" y="-260.63" font-family="Helvetica,sans-Serif" font-size="16.00"> &#160;</text>
<text text-anchor="start" x="1703" y="-260.63" font-family="Helvetica,sans-Serif" font-size="16.00">{R}</text>
<text text-anchor="start" x="1724.75" y="-260.63" font-family="Helvetica,sans-Serif" font-size="16.00">[</text>
<text text-anchor="start" x="1729.25" y="-260.63" font-family="Helvetica,sans-Serif" font-size="16.00">Film</text>
<text text-anchor="start" x="1760" y="-260.63" font-family="Helvetica,sans-Serif" font-size="16.00">]</text>
</a>
</g>
</g>
<!-- Root&#45;&gt;Starship -->
<g id="FIELD::Root::allStarships =&gt; TYPE::Starship" class="edge">
<title>Root:allStarships&#45;&gt;Starship</title>
<path fill="none" stroke="black" d="M204.5,-545.21C270.03,-545.21 705.7,-390.35 770,-377.71 1011.72,-330.18 1076.14,-344.27 1321.5,-322.21 1392.73,-315.8 1472.41,-309.44 1536.8,-304.51"/>
<polygon fill="black" stroke="black" points="1537.01,-308 1546.72,-303.75 1536.48,-301.02 1537.01,-308"/>
<text text-anchor="middle" x="840.88" y="-381.41" font-family="Times,serif" font-size="14.00">Root:allStarships</text>
</g>
<!-- Root&#45;&gt;Starship -->
<g id="FIELD::Root::starship =&gt; TYPE::Starship" class="edge">
<title>Root:starship&#45;&gt;Starship</title>
<path fill="none" stroke="black" d="M204.5,-517.21C318.45,-517.21 322.48,-432.93 430,-395.21 805.74,-263.38 923.64,-322.55 1321.5,-306.21 1392.77,-303.28 1472.45,-300.67 1536.83,-298.73"/>
<polygon fill="black" stroke="black" points="1536.86,-302.23 1546.75,-298.43 1536.65,-295.23 1536.86,-302.23"/>
<text text-anchor="middle" x="840.88" y="-317.41" font-family="Times,serif" font-size="14.00">Root:starship</text>
</g>
<!-- Vehicle -->
<g id="TYPE::Vehicle" class="node">
<title>Vehicle</title>
<g id="a_TYPE_TITLE::Vehicle"><a xlink:href="remove_me_url" xlink:title="&lt;TABLE&gt;">
<polygon fill="none" stroke="black" points="1556,-129.33 1556,-158.08 1770.5,-158.08 1770.5,-129.33 1556,-129.33"/>
<text text-anchor="start" x="1634.75" y="-135.98" font-family="Helvetica,sans-Serif" font-size="18.00">Vehicle</text>
</a>
</g>
<g id="a_FIELD::Vehicle::pilotConnection"><a xlink:href="remove_me_url" xlink:title="&lt;TABLE&gt;">
<polygon fill="none" stroke="black" points="1556,-100.83 1556,-129.33 1770.5,-129.33 1770.5,-100.83 1556,-100.83"/>
<text text-anchor="start" x="1562" y="-109.13" font-family="Helvetica,sans-Serif" font-size="16.00">pilotConnection</text>
<text text-anchor="start" x="1673.75" y="-109.13" font-family="Helvetica,sans-Serif" font-size="16.00"> &#160;</text>
<text text-anchor="start" x="1682.75" y="-109.13" font-family="Helvetica,sans-Serif" font-size="16.00">{R}</text>
<text text-anchor="start" x="1704.5" y="-109.13" font-family="Helvetica,sans-Serif" font-size="16.00">[</text>
<text text-anchor="start" x="1709" y="-109.13" font-family="Helvetica,sans-Serif" font-size="16.00">Person</text>
<text text-anchor="start" x="1760" y="-109.13" font-family="Helvetica,sans-Serif" font-size="16.00">]</text>
</a>
</g>
<g id="a_FIELD::Vehicle::filmConnection"><a xlink:href="remove_me_url" xlink:title="&lt;TABLE&gt;">
<polygon fill="none" stroke="black" points="1556,-72.33 1556,-100.83 1770.5,-100.83 1770.5,-72.33 1556,-72.33"/>
<text text-anchor="start" x="1562" y="-80.63" font-family="Helvetica,sans-Serif" font-size="16.00">filmConnection</text>
<text text-anchor="start" x="1669.25" y="-80.63" font-family="Helvetica,sans-Serif" font-size="16.00"> &#160;</text>
<text text-anchor="start" x="1703" y="-80.63" font-family="Helvetica,sans-Serif" font-size="16.00">{R}</text>
<text text-anchor="start" x="1724.75" y="-80.63" font-family="Helvetica,sans-Serif" font-size="16.00">[</text>
<text text-anchor="start" x="1729.25" y="-80.63" font-family="Helvetica,sans-Serif" font-size="16.00">Film</text>
<text text-anchor="start" x="1760" y="-80.63" font-family="Helvetica,sans-Serif" font-size="16.00">]</text>
</a>
</g>
</g>
<!-- Root&#45;&gt;Vehicle -->
<g id="FIELD::Root::allVehicles =&gt; TYPE::Vehicle" class="edge">
<title>Root:allVehicles&#45;&gt;Vehicle</title>
<path fill="none" stroke="black" d="M204.5,-488.21C212.31,-488.21 423.2,-324.04 430,-320.21 572.12,-240.05 611.15,-219 770,-181.71 912.09,-148.35 1326.35,-128.13 1536.64,-119.74"/>
<polygon fill="black" stroke="black" points="1536.68,-123.24 1546.53,-119.35 1536.4,-116.24 1536.68,-123.24"/>
<text text-anchor="middle" x="840.88" y="-185.41" font-family="Times,serif" font-size="14.00">Root:allVehicles</text>
</g>
<!-- Root&#45;&gt;Vehicle -->
<g id="FIELD::Root::vehicle =&gt; TYPE::Vehicle" class="edge">
<title>Root:vehicle&#45;&gt;Vehicle</title>
<path fill="none" stroke="black" d="M204.5,-460.21C214.12,-460.21 421.62,-201.93 430,-197.21 616.52,-92.06 1262.08,-101.07 1536.86,-110.11"/>
<polygon fill="black" stroke="black" points="1536.44,-113.6 1546.56,-110.44 1536.68,-106.6 1536.44,-113.6"/>
<text text-anchor="middle" x="840.88" y="-125.41" font-family="Times,serif" font-size="14.00">Root:vehicle</text>
</g>
<!-- Film&#45;&gt;Person -->
<g id="FIELD::Film::characterConnection =&gt; TYPE::Person" class="edge">
<title>Film:characterConnection&#45;&gt;Person</title>
<path fill="none" stroke="black" d="M691,-601.21C785.26,-601.21 890.65,-612.31 972.84,-623.48"/>
<polygon fill="black" stroke="black" points="972.15,-626.92 982.53,-624.82 973.1,-619.99 972.15,-626.92"/>
<text text-anchor="middle" x="840.88" y="-619.41" font-family="Times,serif" font-size="14.00">Film:characterConnection</text>
</g>
<!-- Film&#45;&gt;Planet -->
<g id="FIELD::Film::planetConnection =&gt; TYPE::Planet" class="edge">
<title>Film:planetConnection&#45;&gt;Planet</title>
<path fill="none" stroke="black" d="M691,-573.21C750.11,-573.21 724.12,-642.93 770,-680.21 851.11,-746.11 882.8,-751.17 983.75,-778.21 1329.85,-870.91 1430,-836.2 1788.25,-830.21 1867.95,-828.87 1887.94,-829.11 1967.5,-824.21 1987.18,-822.99 2007.93,-821.44 2028.32,-819.75"/>
<polygon fill="black" stroke="black" points="2028.41,-823.26 2038.09,-818.93 2027.83,-816.28 2028.41,-823.26"/>
<text text-anchor="middle" x="1393.88" y="-845.41" font-family="Times,serif" font-size="14.00">Film:planetConnection</text>
</g>
<!-- Film&#45;&gt;Species -->
<g id="FIELD::Film::speciesConnection =&gt; TYPE::Species" class="edge">
<title>Film:speciesConnection&#45;&gt;Species</title>
<path fill="none" stroke="black" d="M691,-687.21C795.31,-687.21 684.73,-526.28 770,-466.21 830.21,-423.79 1292.6,-464.72 1526.97,-488.65"/>
<polygon fill="black" stroke="black" points="1526.48,-492.11 1536.79,-489.65 1527.2,-485.15 1526.48,-492.11"/>
<text text-anchor="middle" x="1116.62" y="-467.41" font-family="Times,serif" font-size="14.00">Film:speciesConnection</text>
</g>
<!-- Film&#45;&gt;Starship -->
<g id="FIELD::Film::starshipConnection =&gt; TYPE::Starship" class="edge">
<title>Film:starshipConnection&#45;&gt;Starship</title>
<path fill="none" stroke="black" d="M691,-658.21C862.19,-658.21 638,-390.22 770,-281.21 883.38,-187.58 1319.2,-240.5 1536.94,-274.12"/>
<polygon fill="black" stroke="black" points="1536.18,-277.54 1546.6,-275.62 1537.26,-270.62 1536.18,-277.54"/>
<text text-anchor="middle" x="1116.62" y="-242.41" font-family="Times,serif" font-size="14.00">Film:starshipConnection</text>
</g>
<!-- Film&#45;&gt;Vehicle -->
<g id="FIELD::Film::vehicleConnection =&gt; TYPE::Vehicle" class="edge">
<title>Film:vehicleConnection&#45;&gt;Vehicle</title>
<path fill="none" stroke="black" d="M691,-630.21C814.26,-630.21 676.84,-161.92 770,-81.21 881.27,15.2 1318.64,-50.18 1536.93,-90.33"/>
<polygon fill="black" stroke="black" points="1536.15,-93.75 1546.62,-92.13 1537.43,-86.86 1536.15,-93.75"/>
<text text-anchor="middle" x="1116.62" y="-50.41" font-family="Times,serif" font-size="14.00">Film:vehicleConnection</text>
</g>
<!-- Person&#45;&gt;Film -->
<g id="FIELD::Person::filmConnection =&gt; TYPE::Film" class="edge">
<title>Person:filmConnection&#45;&gt;Film</title>
<path fill="none" stroke="black" d="M990.62,-660.21C896.87,-660.21 791.58,-656.28 709.18,-652.32"/>
<polygon fill="black" stroke="black" points="709.38,-648.83 699.22,-651.84 709.04,-655.82 709.38,-648.83"/>
<text text-anchor="middle" x="840.88" y="-663.41" font-family="Times,serif" font-size="14.00">Person:filmConnection</text>
</g>
<!-- Person&#45;&gt;Planet -->
<g id="FIELD::Person::homeworld =&gt; TYPE::Planet" class="edge">
<title>Person:homeworld&#45;&gt;Planet</title>
<path fill="none" stroke="black" d="M1242.62,-689.21C1296.82,-689.21 1272.65,-758.74 1321.5,-782.21 1383.26,-811.88 1804.13,-811.06 2028.08,-808.42"/>
<polygon fill="black" stroke="black" points="2028.11,-811.92 2038.07,-808.3 2028.02,-804.92 2028.11,-811.92"/>
<text text-anchor="middle" x="1663.25" y="-813.41" font-family="Times,serif" font-size="14.00">Person:homeworld</text>
</g>
<!-- Person&#45;&gt;Species -->
<g id="FIELD::Person::species =&gt; TYPE::Species" class="edge">
<title>Person:species&#45;&gt;Species</title>
<path fill="none" stroke="black" d="M1242.62,-632.21C1341.3,-632.21 1447.49,-599.22 1528.36,-566.6"/>
<polygon fill="black" stroke="black" points="1529.26,-570.02 1537.19,-562.99 1526.61,-563.53 1529.26,-570.02"/>
<text text-anchor="middle" x="1393.88" y="-629.41" font-family="Times,serif" font-size="14.00">Person:species</text>
</g>
<!-- Person&#45;&gt;Starship -->
<g id="FIELD::Person::starshipConnection =&gt; TYPE::Starship" class="edge">
<title>Person:starshipConnection&#45;&gt;Starship</title>
<path fill="none" stroke="black" d="M1242.62,-603.21C1363.59,-603.21 1229.58,-421.34 1321.5,-342.71 1325.75,-339.07 1441.73,-323.42 1537.21,-311.07"/>
<polygon fill="black" stroke="black" points="1537.47,-314.56 1546.94,-309.81 1536.58,-307.62 1537.47,-314.56"/>
<text text-anchor="middle" x="1393.88" y="-346.41" font-family="Times,serif" font-size="14.00">Person:starshipConnection</text>
</g>
<!-- Person&#45;&gt;Vehicle -->
<g id="FIELD::Person::vehicleConnection =&gt; TYPE::Vehicle" class="edge">
<title>Person:vehicleConnection&#45;&gt;Vehicle</title>
<path fill="none" stroke="black" d="M1242.62,-575.21C1429.28,-575.21 1186.23,-291.32 1321.5,-162.71 1325.55,-158.85 1441.57,-143.24 1537.11,-130.95"/>
<polygon fill="black" stroke="black" points="1537.38,-134.45 1546.85,-129.7 1536.49,-127.51 1537.38,-134.45"/>
<text text-anchor="middle" x="1393.88" y="-166.41" font-family="Times,serif" font-size="14.00">Person:vehicleConnection</text>
</g>
<!-- Planet&#45;&gt;Film -->
<g id="FIELD::Planet::filmConnection =&gt; TYPE::Film" class="edge">
<title>Planet:filmConnection&#45;&gt;Film</title>
<path fill="none" stroke="black" d="M2046.62,-777.21C1574.02,-777.21 1452.15,-808.06 983.75,-745.21 890.82,-732.74 788.48,-708.26 708.24,-686.52"/>
<polygon fill="black" stroke="black" points="709.59,-683.27 699.03,-684.01 707.75,-690.02 709.59,-683.27"/>
<text text-anchor="middle" x="1393.88" y="-788.41" font-family="Times,serif" font-size="14.00">Planet:filmConnection</text>
</g>
<!-- Planet&#45;&gt;Person -->
<g id="FIELD::Planet::residentConnection =&gt; TYPE::Person" class="edge">
<title>Planet:residentConnection&#45;&gt;Person</title>
<path fill="none" stroke="black" d="M2046.62,-806.21C2002.49,-806.21 2008.44,-762.7 1967.5,-746.21 1842.59,-695.89 1468.38,-666.69 1260.61,-653.93"/>
<polygon fill="black" stroke="black" points="1261.02,-650.45 1250.82,-653.33 1260.59,-657.44 1261.02,-650.45"/>
<text text-anchor="middle" x="1663.25" y="-706.41" font-family="Times,serif" font-size="14.00">Planet:residentConnection</text>
</g>
<!-- Species&#45;&gt;Film -->
<g id="FIELD::Species::filmConnection =&gt; TYPE::Film" class="edge">
<title>Species:filmConnection&#45;&gt;Film</title>
<path fill="none" stroke="black" d="M1545.25,-460.21C1200.62,-460.21 1084.29,-302.83 770,-444.21 719.52,-466.92 674.17,-507.7 639.04,-546.54"/>
<polygon fill="black" stroke="black" points="636.74,-543.86 632.71,-553.66 641.97,-548.52 636.74,-543.86"/>
<text text-anchor="middle" x="1116.62" y="-424.41" font-family="Times,serif" font-size="14.00">Species:filmConnection</text>
</g>
<!-- Species&#45;&gt;Person -->
<g id="FIELD::Species::personConnection =&gt; TYPE::Person" class="edge">
<title>Species:personConnection&#45;&gt;Person</title>
<path fill="none" stroke="black" d="M1545.25,-489.21C1445.71,-489.21 1340.68,-527.16 1259.62,-565.74"/>
<polygon fill="black" stroke="black" points="1258.2,-562.54 1250.71,-570.04 1261.24,-568.85 1258.2,-562.54"/>
<text text-anchor="middle" x="1393.88" y="-539.41" font-family="Times,serif" font-size="14.00">Species:personConnection</text>
</g>
<!-- Species&#45;&gt;Planet -->
<g id="FIELD::Species::homeworld =&gt; TYPE::Planet" class="edge">
<title>Species:homeworld&#45;&gt;Planet</title>
<path fill="none" stroke="black" d="M1781.25,-517.21C1935.26,-517.21 2067.35,-666.27 2129.56,-750.29"/>
<polygon fill="black" stroke="black" points="2126.64,-752.22 2135.37,-758.23 2132.29,-748.09 2126.64,-752.22"/>
<text text-anchor="middle" x="1913.88" y="-583.41" font-family="Times,serif" font-size="14.00">Species:homeworld</text>
</g>
<!-- Starship&#45;&gt;Film -->
<g id="FIELD::Starship::filmConnection =&gt; TYPE::Film" class="edge">
<title>Starship:filmConnection&#45;&gt;Film</title>
<path fill="none" stroke="black" d="M1555.25,-266.21C1514.8,-266.21 1505.95,-254.97 1466.25,-247.21 1418.24,-237.82 1298.23,-213 1249.5,-208.71 1131.84,-198.34 1101.68,-202.24 983.75,-208.71 888.32,-213.94 848.37,-177.51 770,-232.21 665.44,-305.18 611.57,-447.3 585.83,-543.98"/>
<polygon fill="black" stroke="black" points="582.49,-542.93 583.36,-553.49 589.27,-544.69 582.49,-542.93"/>
<text text-anchor="middle" x="1116.62" y="-212.41" font-family="Times,serif" font-size="14.00">Starship:filmConnection</text>
</g>
<!-- Starship&#45;&gt;Person -->
<g id="FIELD::Starship::pilotConnection =&gt; TYPE::Person" class="edge">
<title>Starship:pilotConnection&#45;&gt;Person</title>
<path fill="none" stroke="black" d="M1555.25,-295.21C1547.01,-295.21 1327.92,-472.55 1321.5,-477.71 1292.87,-500.71 1262.23,-525.78 1233.63,-549.39"/>
<polygon fill="black" stroke="black" points="1231.47,-546.63 1225.99,-555.7 1235.93,-552.03 1231.47,-546.63"/>
<text text-anchor="middle" x="1393.88" y="-481.41" font-family="Times,serif" font-size="14.00">Starship:pilotConnection</text>
</g>
<!-- Vehicle&#45;&gt;Film -->
<g id="FIELD::Vehicle::filmConnection =&gt; TYPE::Film" class="edge">
<title>Vehicle:filmConnection&#45;&gt;Film</title>
<path fill="none" stroke="black" d="M1555.25,-86.21C1513.06,-86.21 1506.86,-64.64 1466.25,-53.21 1259.03,5.11 1198.75,0.08 983.75,-10.71 888.39,-15.49 844.61,27.38 770,-32.21 614.05,-156.76 575.87,-404.26 567.07,-543.33"/>
<polygon fill="black" stroke="black" points="563.58,-543.09 566.49,-553.28 570.57,-543.5 563.58,-543.09"/>
<text text-anchor="middle" x="1116.62" y="-14.41" font-family="Times,serif" font-size="14.00">Vehicle:filmConnection</text>
</g>
<!-- Vehicle&#45;&gt;Person -->
<g id="FIELD::Vehicle::pilotConnection =&gt; TYPE::Person" class="edge">
<title>Vehicle:pilotConnection&#45;&gt;Person</title>
<path fill="none" stroke="black" d="M1555.25,-115.21C1546.96,-115.21 1326.56,-294.14 1321.5,-300.71 1272.8,-363.94 1289.23,-395.99 1249.5,-465.21 1233.57,-492.96 1214.25,-521.57 1195.38,-547.62"/>
<polygon fill="black" stroke="black" points="1192.69,-545.37 1189.61,-555.51 1198.34,-549.5 1192.69,-545.37"/>
<text text-anchor="middle" x="1393.88" y="-304.41" font-family="Times,serif" font-size="14.00">Vehicle:pilotConnection</text>
</g>
</g>
</svg>
